<svg xmlns="http://www.w3.org/2000/svg" width="18" height="12" viewBox="0 0 18 12">
  <path id="Icon_awesome-ticket-alt" data-name="Icon awesome-ticket-alt" d="M4,7.5H14v6H4Zm12.5,3A1.5,1.5,0,0,0,18,12v3a1.5,1.5,0,0,1-1.5,1.5H1.5A1.5,1.5,0,0,1,0,15V12a1.5,1.5,0,0,0,1.5-1.5A1.5,1.5,0,0,0,0,9V6A1.5,1.5,0,0,1,1.5,4.5h15A1.5,1.5,0,0,1,18,6V9A1.5,1.5,0,0,0,16.5,10.5ZM15,7.25a.75.75,0,0,0-.75-.75H3.75A.75.75,0,0,0,3,7.25v6.5a.75.75,0,0,0,.75.75h10.5a.75.75,0,0,0,.75-.75Z" transform="translate(0 -4.5)" fill="#fff"/>
</svg>
